<mxfile host="drawio-plugin" modified="2021-10-28T22:49:04.532Z" agent="5.0 (X11; Linux x86_64) AppleWebKit/537.36 (KHTML, like Gecko) Chrome/89.0.4389.114 Safari/537.36" etag="xmWTDD6OkTU82S0tJEJI" version="14.7.4" type="embed"><diagram id="NtXFIpBXKU33SPB3oJ8B" name="Страница 1"><mxGraphModel dx="1336" dy="580" grid="1" gridSize="10" guides="1" tooltips="1" connect="1" arrows="1" fold="1" page="1" pageScale="1" pageWidth="1169" pageHeight="827" math="0" shadow="0"><root><mxCell id="0"/><mxCell id="1" parent="0"/><mxCell id="zKBg_-9jiqZ04VVVgIuH-5" value="Customers" style="shape=table;startSize=30;container=1;collapsible=1;childLayout=tableLayout;fixedRows=1;rowLines=0;fontStyle=1;align=center;resizeLast=1;" parent="1" vertex="1"><mxGeometry y="20" width="270" height="250" as="geometry"/></mxCell><mxCell id="zKBg_-9jiqZ04VVVgIuH-6" value="" style="shape=partialRectangle;collapsible=0;dropTarget=0;pointerEvents=0;fillColor=none;top=0;left=0;bottom=1;right=0;points=[[0,0.5],[1,0.5]];portConstraint=eastwest;" parent="zKBg_-9jiqZ04VVVgIuH-5" vertex="1"><mxGeometry y="30" width="270" height="30" as="geometry"/></mxCell><mxCell id="zKBg_-9jiqZ04VVVgIuH-7" value="PK" style="shape=partialRectangle;connectable=0;fillColor=none;top=0;left=0;bottom=0;right=0;fontStyle=1;overflow=hidden;" parent="zKBg_-9jiqZ04VVVgIuH-6" vertex="1"><mxGeometry width="30" height="30" as="geometry"><mxRectangle width="30" height="30" as="alternateBounds"/></mxGeometry></mxCell><mxCell id="zKBg_-9jiqZ04VVVgIuH-8" value="user_id SERIAL NOT NULL" style="shape=partialRectangle;connectable=0;fillColor=none;top=0;left=0;bottom=0;right=0;align=left;spacingLeft=6;fontStyle=5;overflow=hidden;" parent="zKBg_-9jiqZ04VVVgIuH-6" vertex="1"><mxGeometry x="30" width="240" height="30" as="geometry"><mxRectangle width="240" height="30" as="alternateBounds"/></mxGeometry></mxCell><mxCell id="zKBg_-9jiqZ04VVVgIuH-9" value="" style="shape=partialRectangle;collapsible=0;dropTarget=0;pointerEvents=0;fillColor=none;top=0;left=0;bottom=0;right=0;points=[[0,0.5],[1,0.5]];portConstraint=eastwest;" parent="zKBg_-9jiqZ04VVVgIuH-5" vertex="1"><mxGeometry y="60" width="270" height="30" as="geometry"/></mxCell><mxCell id="zKBg_-9jiqZ04VVVgIuH-10" value="" style="shape=partialRectangle;connectable=0;fillColor=none;top=0;left=0;bottom=0;right=0;editable=1;overflow=hidden;" parent="zKBg_-9jiqZ04VVVgIuH-9" vertex="1"><mxGeometry width="30" height="30" as="geometry"><mxRectangle width="30" height="30" as="alternateBounds"/></mxGeometry></mxCell><mxCell id="zKBg_-9jiqZ04VVVgIuH-11" value="first_name VARCHAR(25) NOT NULL" style="shape=partialRectangle;connectable=0;fillColor=none;top=0;left=0;bottom=0;right=0;align=left;spacingLeft=6;overflow=hidden;" parent="zKBg_-9jiqZ04VVVgIuH-9" vertex="1"><mxGeometry x="30" width="240" height="30" as="geometry"><mxRectangle width="240" height="30" as="alternateBounds"/></mxGeometry></mxCell><mxCell id="zKBg_-9jiqZ04VVVgIuH-12" value="" style="shape=partialRectangle;collapsible=0;dropTarget=0;pointerEvents=0;fillColor=none;top=0;left=0;bottom=0;right=0;points=[[0,0.5],[1,0.5]];portConstraint=eastwest;" parent="zKBg_-9jiqZ04VVVgIuH-5" vertex="1"><mxGeometry y="90" width="270" height="30" as="geometry"/></mxCell><mxCell id="zKBg_-9jiqZ04VVVgIuH-13" value="" style="shape=partialRectangle;connectable=0;fillColor=none;top=0;left=0;bottom=0;right=0;editable=1;overflow=hidden;" parent="zKBg_-9jiqZ04VVVgIuH-12" vertex="1"><mxGeometry width="30" height="30" as="geometry"><mxRectangle width="30" height="30" as="alternateBounds"/></mxGeometry></mxCell><mxCell id="zKBg_-9jiqZ04VVVgIuH-14" value="" style="shape=partialRectangle;connectable=0;fillColor=none;top=0;left=0;bottom=0;right=0;align=left;spacingLeft=6;overflow=hidden;" parent="zKBg_-9jiqZ04VVVgIuH-12" vertex="1"><mxGeometry x="30" width="240" height="30" as="geometry"><mxRectangle width="240" height="30" as="alternateBounds"/></mxGeometry></mxCell><mxCell id="zKBg_-9jiqZ04VVVgIuH-24" value="" style="shape=partialRectangle;collapsible=0;dropTarget=0;pointerEvents=0;fillColor=none;top=0;left=0;bottom=0;right=0;points=[[0,0.5],[1,0.5]];portConstraint=eastwest;" parent="zKBg_-9jiqZ04VVVgIuH-5" vertex="1"><mxGeometry y="120" width="270" height="30" as="geometry"/></mxCell><mxCell id="zKBg_-9jiqZ04VVVgIuH-25" value="FK" style="shape=partialRectangle;connectable=0;fillColor=none;top=0;left=0;bottom=0;right=0;fontStyle=0;overflow=hidden;" parent="zKBg_-9jiqZ04VVVgIuH-24" vertex="1"><mxGeometry width="30" height="30" as="geometry"><mxRectangle width="30" height="30" as="alternateBounds"/></mxGeometry></mxCell><mxCell id="zKBg_-9jiqZ04VVVgIuH-26" value="phone_id SMALLINT" style="shape=partialRectangle;connectable=0;fillColor=none;top=0;left=0;bottom=0;right=0;align=left;spacingLeft=6;fontStyle=0;overflow=hidden;" parent="zKBg_-9jiqZ04VVVgIuH-24" vertex="1"><mxGeometry x="30" width="240" height="30" as="geometry"><mxRectangle width="240" height="30" as="alternateBounds"/></mxGeometry></mxCell><mxCell id="zKBg_-9jiqZ04VVVgIuH-27" value="" style="shape=partialRectangle;collapsible=0;dropTarget=0;pointerEvents=0;fillColor=none;top=0;left=0;bottom=0;right=0;points=[[0,0.5],[1,0.5]];portConstraint=eastwest;" parent="zKBg_-9jiqZ04VVVgIuH-5" vertex="1"><mxGeometry y="150" width="270" height="30" as="geometry"/></mxCell><mxCell id="zKBg_-9jiqZ04VVVgIuH-28" value="FK" style="shape=partialRectangle;connectable=0;fillColor=none;top=0;left=0;bottom=0;right=0;fontStyle=0;overflow=hidden;" parent="zKBg_-9jiqZ04VVVgIuH-27" vertex="1"><mxGeometry width="30" height="30" as="geometry"><mxRectangle width="30" height="30" as="alternateBounds"/></mxGeometry></mxCell><mxCell id="zKBg_-9jiqZ04VVVgIuH-29" value="cars_id SMALLINT NOT NULL" style="shape=partialRectangle;connectable=0;fillColor=none;top=0;left=0;bottom=0;right=0;align=left;spacingLeft=6;fontStyle=0;overflow=hidden;" parent="zKBg_-9jiqZ04VVVgIuH-27" vertex="1"><mxGeometry x="30" width="240" height="30" as="geometry"><mxRectangle width="240" height="30" as="alternateBounds"/></mxGeometry></mxCell><mxCell id="zKBg_-9jiqZ04VVVgIuH-131" value="" style="shape=partialRectangle;collapsible=0;dropTarget=0;pointerEvents=0;fillColor=none;top=0;left=0;bottom=0;right=0;points=[[0,0.5],[1,0.5]];portConstraint=eastwest;" parent="zKBg_-9jiqZ04VVVgIuH-5" vertex="1"><mxGeometry y="180" width="270" height="30" as="geometry"/></mxCell><mxCell id="zKBg_-9jiqZ04VVVgIuH-132" value="FK" style="shape=partialRectangle;connectable=0;fillColor=none;top=0;left=0;bottom=0;right=0;fontStyle=0;overflow=hidden;" parent="zKBg_-9jiqZ04VVVgIuH-131" vertex="1"><mxGeometry width="30" height="30" as="geometry"><mxRectangle width="30" height="30" as="alternateBounds"/></mxGeometry></mxCell><mxCell id="zKBg_-9jiqZ04VVVgIuH-133" value="adress_adress_id SMALLINT NOT NULL" style="shape=partialRectangle;connectable=0;fillColor=none;top=0;left=0;bottom=0;right=0;align=left;spacingLeft=6;fontStyle=0;overflow=hidden;" parent="zKBg_-9jiqZ04VVVgIuH-131" vertex="1"><mxGeometry x="30" width="240" height="30" as="geometry"><mxRectangle width="240" height="30" as="alternateBounds"/></mxGeometry></mxCell><mxCell id="zKBg_-9jiqZ04VVVgIuH-15" value="" style="shape=partialRectangle;collapsible=0;dropTarget=0;pointerEvents=0;fillColor=none;top=0;left=0;bottom=0;right=0;points=[[0,0.5],[1,0.5]];portConstraint=eastwest;" parent="zKBg_-9jiqZ04VVVgIuH-5" vertex="1"><mxGeometry y="210" width="270" height="30" as="geometry"/></mxCell><mxCell id="zKBg_-9jiqZ04VVVgIuH-16" value="" style="shape=partialRectangle;connectable=0;fillColor=none;top=0;left=0;bottom=0;right=0;editable=1;overflow=hidden;" parent="zKBg_-9jiqZ04VVVgIuH-15" vertex="1"><mxGeometry width="30" height="30" as="geometry"><mxRectangle width="30" height="30" as="alternateBounds"/></mxGeometry></mxCell><mxCell id="zKBg_-9jiqZ04VVVgIuH-17" value="" style="shape=partialRectangle;connectable=0;fillColor=none;top=0;left=0;bottom=0;right=0;align=left;spacingLeft=6;overflow=hidden;" parent="zKBg_-9jiqZ04VVVgIuH-15" vertex="1"><mxGeometry x="30" width="240" height="30" as="geometry"><mxRectangle width="240" height="30" as="alternateBounds"/></mxGeometry></mxCell><mxCell id="zKBg_-9jiqZ04VVVgIuH-19" value="second_name VARCHAR(25) NOT NULL" style="shape=partialRectangle;connectable=0;fillColor=none;top=0;left=0;bottom=0;right=0;align=left;spacingLeft=6;overflow=hidden;" parent="1" vertex="1"><mxGeometry x="35" y="110" width="190" height="30" as="geometry"><mxRectangle width="190" height="30" as="alternateBounds"/></mxGeometry></mxCell><mxCell id="zKBg_-9jiqZ04VVVgIuH-30" value="Cars" style="shape=table;startSize=30;container=1;collapsible=1;childLayout=tableLayout;fixedRows=1;rowLines=0;fontStyle=1;align=center;resizeLast=1;" parent="1" vertex="1"><mxGeometry x="430" y="590" width="280" height="160" as="geometry"/></mxCell><mxCell id="zKBg_-9jiqZ04VVVgIuH-31" value="" style="shape=partialRectangle;collapsible=0;dropTarget=0;pointerEvents=0;fillColor=none;top=0;left=0;bottom=1;right=0;points=[[0,0.5],[1,0.5]];portConstraint=eastwest;" parent="zKBg_-9jiqZ04VVVgIuH-30" vertex="1"><mxGeometry y="30" width="280" height="30" as="geometry"/></mxCell><mxCell id="zKBg_-9jiqZ04VVVgIuH-32" value="PK" style="shape=partialRectangle;connectable=0;fillColor=none;top=0;left=0;bottom=0;right=0;fontStyle=1;overflow=hidden;" parent="zKBg_-9jiqZ04VVVgIuH-31" vertex="1"><mxGeometry width="30" height="30" as="geometry"><mxRectangle width="30" height="30" as="alternateBounds"/></mxGeometry></mxCell><mxCell id="zKBg_-9jiqZ04VVVgIuH-33" value="car_id SERIAL NOT NULL" style="shape=partialRectangle;connectable=0;fillColor=none;top=0;left=0;bottom=0;right=0;align=left;spacingLeft=6;fontStyle=5;overflow=hidden;" parent="zKBg_-9jiqZ04VVVgIuH-31" vertex="1"><mxGeometry x="30" width="250" height="30" as="geometry"><mxRectangle width="250" height="30" as="alternateBounds"/></mxGeometry></mxCell><mxCell id="zKBg_-9jiqZ04VVVgIuH-77" value="" style="shape=partialRectangle;collapsible=0;dropTarget=0;pointerEvents=0;fillColor=none;top=0;left=0;bottom=0;right=0;points=[[0,0.5],[1,0.5]];portConstraint=eastwest;" parent="zKBg_-9jiqZ04VVVgIuH-30" vertex="1"><mxGeometry y="60" width="280" height="30" as="geometry"/></mxCell><mxCell id="zKBg_-9jiqZ04VVVgIuH-78" value="FK" style="shape=partialRectangle;connectable=0;fillColor=none;top=0;left=0;bottom=0;right=0;fontStyle=0;overflow=hidden;" parent="zKBg_-9jiqZ04VVVgIuH-77" vertex="1"><mxGeometry width="30" height="30" as="geometry"><mxRectangle width="30" height="30" as="alternateBounds"/></mxGeometry></mxCell><mxCell id="zKBg_-9jiqZ04VVVgIuH-79" value="car_brend_brend_id SMALLINT NOT NULL" style="shape=partialRectangle;connectable=0;fillColor=none;top=0;left=0;bottom=0;right=0;align=left;spacingLeft=6;fontStyle=0;overflow=hidden;" parent="zKBg_-9jiqZ04VVVgIuH-77" vertex="1"><mxGeometry x="30" width="250" height="30" as="geometry"><mxRectangle width="250" height="30" as="alternateBounds"/></mxGeometry></mxCell><mxCell id="zKBg_-9jiqZ04VVVgIuH-70" value="" style="shape=partialRectangle;collapsible=0;dropTarget=0;pointerEvents=0;fillColor=none;top=0;left=0;bottom=0;right=0;points=[[0,0.5],[1,0.5]];portConstraint=eastwest;" parent="zKBg_-9jiqZ04VVVgIuH-30" vertex="1"><mxGeometry y="90" width="280" height="30" as="geometry"/></mxCell><mxCell id="zKBg_-9jiqZ04VVVgIuH-71" value="FK" style="shape=partialRectangle;connectable=0;fillColor=none;top=0;left=0;bottom=0;right=0;fontStyle=0;overflow=hidden;" parent="zKBg_-9jiqZ04VVVgIuH-70" vertex="1"><mxGeometry width="30" height="30" as="geometry"><mxRectangle width="30" height="30" as="alternateBounds"/></mxGeometry></mxCell><mxCell id="zKBg_-9jiqZ04VVVgIuH-72" value="car_model_model_id INT NOT NULL" style="shape=partialRectangle;connectable=0;fillColor=none;top=0;left=0;bottom=0;right=0;align=left;spacingLeft=6;fontStyle=0;overflow=hidden;" parent="zKBg_-9jiqZ04VVVgIuH-70" vertex="1"><mxGeometry x="30" width="250" height="30" as="geometry"><mxRectangle width="250" height="30" as="alternateBounds"/></mxGeometry></mxCell><mxCell id="zKBg_-9jiqZ04VVVgIuH-217" value="" style="shape=partialRectangle;collapsible=0;dropTarget=0;pointerEvents=0;fillColor=none;top=0;left=0;bottom=0;right=0;points=[[0,0.5],[1,0.5]];portConstraint=eastwest;" parent="zKBg_-9jiqZ04VVVgIuH-30" vertex="1"><mxGeometry y="120" width="280" height="30" as="geometry"/></mxCell><mxCell id="zKBg_-9jiqZ04VVVgIuH-218" value="" style="shape=partialRectangle;connectable=0;fillColor=none;top=0;left=0;bottom=0;right=0;editable=1;overflow=hidden;" parent="zKBg_-9jiqZ04VVVgIuH-217" vertex="1"><mxGeometry width="30" height="30" as="geometry"><mxRectangle width="30" height="30" as="alternateBounds"/></mxGeometry></mxCell><mxCell id="zKBg_-9jiqZ04VVVgIuH-219" value="car_plate VARCHAR(10) NOT NULL;" style="shape=partialRectangle;connectable=0;fillColor=none;top=0;left=0;bottom=0;right=0;align=left;spacingLeft=6;overflow=hidden;" parent="zKBg_-9jiqZ04VVVgIuH-217" vertex="1"><mxGeometry x="30" width="250" height="30" as="geometry"><mxRectangle width="250" height="30" as="alternateBounds"/></mxGeometry></mxCell><mxCell id="zKBg_-9jiqZ04VVVgIuH-43" value="Car_brend" style="shape=table;startSize=30;container=1;collapsible=1;childLayout=tableLayout;fixedRows=1;rowLines=0;fontStyle=1;align=center;resizeLast=1;" parent="1" vertex="1"><mxGeometry y="490" width="260" height="100" as="geometry"/></mxCell><mxCell id="zKBg_-9jiqZ04VVVgIuH-44" value="" style="shape=partialRectangle;collapsible=0;dropTarget=0;pointerEvents=0;fillColor=none;top=0;left=0;bottom=1;right=0;points=[[0,0.5],[1,0.5]];portConstraint=eastwest;" parent="zKBg_-9jiqZ04VVVgIuH-43" vertex="1"><mxGeometry y="30" width="260" height="30" as="geometry"/></mxCell><mxCell id="zKBg_-9jiqZ04VVVgIuH-45" value="PK" style="shape=partialRectangle;connectable=0;fillColor=none;top=0;left=0;bottom=0;right=0;fontStyle=1;overflow=hidden;" parent="zKBg_-9jiqZ04VVVgIuH-44" vertex="1"><mxGeometry width="30" height="30" as="geometry"><mxRectangle width="30" height="30" as="alternateBounds"/></mxGeometry></mxCell><mxCell id="zKBg_-9jiqZ04VVVgIuH-46" value="brend_id SERIAL NOT NULL" style="shape=partialRectangle;connectable=0;fillColor=none;top=0;left=0;bottom=0;right=0;align=left;spacingLeft=6;fontStyle=5;overflow=hidden;" parent="zKBg_-9jiqZ04VVVgIuH-44" vertex="1"><mxGeometry x="30" width="230" height="30" as="geometry"><mxRectangle width="230" height="30" as="alternateBounds"/></mxGeometry></mxCell><mxCell id="zKBg_-9jiqZ04VVVgIuH-47" value="" style="shape=partialRectangle;collapsible=0;dropTarget=0;pointerEvents=0;fillColor=none;top=0;left=0;bottom=0;right=0;points=[[0,0.5],[1,0.5]];portConstraint=eastwest;" parent="zKBg_-9jiqZ04VVVgIuH-43" vertex="1"><mxGeometry y="60" width="260" height="30" as="geometry"/></mxCell><mxCell id="zKBg_-9jiqZ04VVVgIuH-48" value="" style="shape=partialRectangle;connectable=0;fillColor=none;top=0;left=0;bottom=0;right=0;editable=1;overflow=hidden;" parent="zKBg_-9jiqZ04VVVgIuH-47" vertex="1"><mxGeometry width="30" height="30" as="geometry"><mxRectangle width="30" height="30" as="alternateBounds"/></mxGeometry></mxCell><mxCell id="zKBg_-9jiqZ04VVVgIuH-49" value="brand_name VARCHAR(255) NOT NULL" style="shape=partialRectangle;connectable=0;fillColor=none;top=0;left=0;bottom=0;right=0;align=left;spacingLeft=6;overflow=hidden;" parent="zKBg_-9jiqZ04VVVgIuH-47" vertex="1"><mxGeometry x="30" width="230" height="30" as="geometry"><mxRectangle width="230" height="30" as="alternateBounds"/></mxGeometry></mxCell><mxCell id="zKBg_-9jiqZ04VVVgIuH-56" value="Car_models" style="shape=table;startSize=30;container=1;collapsible=1;childLayout=tableLayout;fixedRows=1;rowLines=0;fontStyle=1;align=center;resizeLast=1;" parent="1" vertex="1"><mxGeometry y="697" width="290" height="130" as="geometry"/></mxCell><mxCell id="zKBg_-9jiqZ04VVVgIuH-57" value="" style="shape=partialRectangle;collapsible=0;dropTarget=0;pointerEvents=0;fillColor=none;top=0;left=0;bottom=1;right=0;points=[[0,0.5],[1,0.5]];portConstraint=eastwest;" parent="zKBg_-9jiqZ04VVVgIuH-56" vertex="1"><mxGeometry y="30" width="290" height="30" as="geometry"/></mxCell><mxCell id="zKBg_-9jiqZ04VVVgIuH-58" value="PK" style="shape=partialRectangle;connectable=0;fillColor=none;top=0;left=0;bottom=0;right=0;fontStyle=1;overflow=hidden;" parent="zKBg_-9jiqZ04VVVgIuH-57" vertex="1"><mxGeometry width="30" height="30" as="geometry"><mxRectangle width="30" height="30" as="alternateBounds"/></mxGeometry></mxCell><mxCell id="zKBg_-9jiqZ04VVVgIuH-59" value="model_id SERIAL NOT NULL" style="shape=partialRectangle;connectable=0;fillColor=none;top=0;left=0;bottom=0;right=0;align=left;spacingLeft=6;fontStyle=5;overflow=hidden;" parent="zKBg_-9jiqZ04VVVgIuH-57" vertex="1"><mxGeometry x="30" width="260" height="30" as="geometry"><mxRectangle width="260" height="30" as="alternateBounds"/></mxGeometry></mxCell><mxCell id="zKBg_-9jiqZ04VVVgIuH-60" value="" style="shape=partialRectangle;collapsible=0;dropTarget=0;pointerEvents=0;fillColor=none;top=0;left=0;bottom=0;right=0;points=[[0,0.5],[1,0.5]];portConstraint=eastwest;" parent="zKBg_-9jiqZ04VVVgIuH-56" vertex="1"><mxGeometry y="60" width="290" height="30" as="geometry"/></mxCell><mxCell id="zKBg_-9jiqZ04VVVgIuH-61" value="FK" style="shape=partialRectangle;connectable=0;fillColor=none;top=0;left=0;bottom=0;right=0;editable=1;overflow=hidden;" parent="zKBg_-9jiqZ04VVVgIuH-60" vertex="1"><mxGeometry width="30" height="30" as="geometry"><mxRectangle width="30" height="30" as="alternateBounds"/></mxGeometry></mxCell><mxCell id="zKBg_-9jiqZ04VVVgIuH-62" value="car_brend_brend_id SMALLINT NOT NULL" style="shape=partialRectangle;connectable=0;fillColor=none;top=0;left=0;bottom=0;right=0;align=left;spacingLeft=6;overflow=hidden;" parent="zKBg_-9jiqZ04VVVgIuH-60" vertex="1"><mxGeometry x="30" width="260" height="30" as="geometry"><mxRectangle width="260" height="30" as="alternateBounds"/></mxGeometry></mxCell><mxCell id="zKBg_-9jiqZ04VVVgIuH-80" value="" style="shape=partialRectangle;collapsible=0;dropTarget=0;pointerEvents=0;fillColor=none;top=0;left=0;bottom=0;right=0;points=[[0,0.5],[1,0.5]];portConstraint=eastwest;" parent="zKBg_-9jiqZ04VVVgIuH-56" vertex="1"><mxGeometry y="90" width="290" height="30" as="geometry"/></mxCell><mxCell id="zKBg_-9jiqZ04VVVgIuH-81" value="" style="shape=partialRectangle;connectable=0;fillColor=none;top=0;left=0;bottom=0;right=0;editable=1;overflow=hidden;" parent="zKBg_-9jiqZ04VVVgIuH-80" vertex="1"><mxGeometry width="30" height="30" as="geometry"><mxRectangle width="30" height="30" as="alternateBounds"/></mxGeometry></mxCell><mxCell id="zKBg_-9jiqZ04VVVgIuH-82" value="model_name VARCHAR(255) NOT NULL" style="shape=partialRectangle;connectable=0;fillColor=none;top=0;left=0;bottom=0;right=0;align=left;spacingLeft=6;overflow=hidden;" parent="zKBg_-9jiqZ04VVVgIuH-80" vertex="1"><mxGeometry x="30" width="260" height="30" as="geometry"><mxRectangle width="260" height="30" as="alternateBounds"/></mxGeometry></mxCell><mxCell id="zKBg_-9jiqZ04VVVgIuH-83" value="Cities" style="shape=table;startSize=30;container=1;collapsible=1;childLayout=tableLayout;fixedRows=1;rowLines=0;fontStyle=1;align=center;resizeLast=1;" parent="1" vertex="1"><mxGeometry x="1190" y="500" width="250" height="100" as="geometry"/></mxCell><mxCell id="zKBg_-9jiqZ04VVVgIuH-84" value="" style="shape=partialRectangle;collapsible=0;dropTarget=0;pointerEvents=0;fillColor=none;top=0;left=0;bottom=1;right=0;points=[[0,0.5],[1,0.5]];portConstraint=eastwest;" parent="zKBg_-9jiqZ04VVVgIuH-83" vertex="1"><mxGeometry y="30" width="250" height="30" as="geometry"/></mxCell><mxCell id="zKBg_-9jiqZ04VVVgIuH-85" value="PK" style="shape=partialRectangle;connectable=0;fillColor=none;top=0;left=0;bottom=0;right=0;fontStyle=1;overflow=hidden;" parent="zKBg_-9jiqZ04VVVgIuH-84" vertex="1"><mxGeometry width="30" height="30" as="geometry"><mxRectangle width="30" height="30" as="alternateBounds"/></mxGeometry></mxCell><mxCell id="zKBg_-9jiqZ04VVVgIuH-86" value="city_id SERIAL NOT NULL" style="shape=partialRectangle;connectable=0;fillColor=none;top=0;left=0;bottom=0;right=0;align=left;spacingLeft=6;fontStyle=5;overflow=hidden;" parent="zKBg_-9jiqZ04VVVgIuH-84" vertex="1"><mxGeometry x="30" width="220" height="30" as="geometry"><mxRectangle width="220" height="30" as="alternateBounds"/></mxGeometry></mxCell><mxCell id="zKBg_-9jiqZ04VVVgIuH-87" value="" style="shape=partialRectangle;collapsible=0;dropTarget=0;pointerEvents=0;fillColor=none;top=0;left=0;bottom=0;right=0;points=[[0,0.5],[1,0.5]];portConstraint=eastwest;" parent="zKBg_-9jiqZ04VVVgIuH-83" vertex="1"><mxGeometry y="60" width="250" height="30" as="geometry"/></mxCell><mxCell id="zKBg_-9jiqZ04VVVgIuH-88" value="" style="shape=partialRectangle;connectable=0;fillColor=none;top=0;left=0;bottom=0;right=0;editable=1;overflow=hidden;" parent="zKBg_-9jiqZ04VVVgIuH-87" vertex="1"><mxGeometry width="30" height="30" as="geometry"><mxRectangle width="30" height="30" as="alternateBounds"/></mxGeometry></mxCell><mxCell id="zKBg_-9jiqZ04VVVgIuH-89" value="city_name VARCHAR(255) NOT NULL" style="shape=partialRectangle;connectable=0;fillColor=none;top=0;left=0;bottom=0;right=0;align=left;spacingLeft=6;overflow=hidden;" parent="zKBg_-9jiqZ04VVVgIuH-87" vertex="1"><mxGeometry x="30" width="220" height="30" as="geometry"><mxRectangle width="220" height="30" as="alternateBounds"/></mxGeometry></mxCell><mxCell id="zKBg_-9jiqZ04VVVgIuH-90" value="States" style="shape=table;startSize=30;container=1;collapsible=1;childLayout=tableLayout;fixedRows=1;rowLines=0;fontStyle=1;align=center;resizeLast=1;" parent="1" vertex="1"><mxGeometry x="1180" y="660" width="250" height="100" as="geometry"/></mxCell><mxCell id="zKBg_-9jiqZ04VVVgIuH-91" value="" style="shape=partialRectangle;collapsible=0;dropTarget=0;pointerEvents=0;fillColor=none;top=0;left=0;bottom=1;right=0;points=[[0,0.5],[1,0.5]];portConstraint=eastwest;" parent="zKBg_-9jiqZ04VVVgIuH-90" vertex="1"><mxGeometry y="30" width="250" height="30" as="geometry"/></mxCell><mxCell id="zKBg_-9jiqZ04VVVgIuH-92" value="PK" style="shape=partialRectangle;connectable=0;fillColor=none;top=0;left=0;bottom=0;right=0;fontStyle=1;overflow=hidden;" parent="zKBg_-9jiqZ04VVVgIuH-91" vertex="1"><mxGeometry width="30" height="30" as="geometry"><mxRectangle width="30" height="30" as="alternateBounds"/></mxGeometry></mxCell><mxCell id="zKBg_-9jiqZ04VVVgIuH-93" value="state_id SERIAL NOT NULL" style="shape=partialRectangle;connectable=0;fillColor=none;top=0;left=0;bottom=0;right=0;align=left;spacingLeft=6;fontStyle=5;overflow=hidden;" parent="zKBg_-9jiqZ04VVVgIuH-91" vertex="1"><mxGeometry x="30" width="220" height="30" as="geometry"><mxRectangle width="220" height="30" as="alternateBounds"/></mxGeometry></mxCell><mxCell id="zKBg_-9jiqZ04VVVgIuH-94" value="" style="shape=partialRectangle;collapsible=0;dropTarget=0;pointerEvents=0;fillColor=none;top=0;left=0;bottom=0;right=0;points=[[0,0.5],[1,0.5]];portConstraint=eastwest;" parent="zKBg_-9jiqZ04VVVgIuH-90" vertex="1"><mxGeometry y="60" width="250" height="30" as="geometry"/></mxCell><mxCell id="zKBg_-9jiqZ04VVVgIuH-95" value="" style="shape=partialRectangle;connectable=0;fillColor=none;top=0;left=0;bottom=0;right=0;editable=1;overflow=hidden;" parent="zKBg_-9jiqZ04VVVgIuH-94" vertex="1"><mxGeometry width="30" height="30" as="geometry"><mxRectangle width="30" height="30" as="alternateBounds"/></mxGeometry></mxCell><mxCell id="zKBg_-9jiqZ04VVVgIuH-96" value="state_name VARCHAR(20) NOT NULL" style="shape=partialRectangle;connectable=0;fillColor=none;top=0;left=0;bottom=0;right=0;align=left;spacingLeft=6;overflow=hidden;" parent="zKBg_-9jiqZ04VVVgIuH-94" vertex="1"><mxGeometry x="30" width="220" height="30" as="geometry"><mxRectangle width="220" height="30" as="alternateBounds"/></mxGeometry></mxCell><mxCell id="zKBg_-9jiqZ04VVVgIuH-100" value="Streets" style="shape=table;startSize=30;container=1;collapsible=1;childLayout=tableLayout;fixedRows=1;rowLines=0;fontStyle=1;align=center;resizeLast=1;" parent="1" vertex="1"><mxGeometry x="1190" y="313" width="250" height="100" as="geometry"/></mxCell><mxCell id="zKBg_-9jiqZ04VVVgIuH-101" value="" style="shape=partialRectangle;collapsible=0;dropTarget=0;pointerEvents=0;fillColor=none;top=0;left=0;bottom=1;right=0;points=[[0,0.5],[1,0.5]];portConstraint=eastwest;" parent="zKBg_-9jiqZ04VVVgIuH-100" vertex="1"><mxGeometry y="30" width="250" height="30" as="geometry"/></mxCell><mxCell id="zKBg_-9jiqZ04VVVgIuH-102" value="PK" style="shape=partialRectangle;connectable=0;fillColor=none;top=0;left=0;bottom=0;right=0;fontStyle=1;overflow=hidden;" parent="zKBg_-9jiqZ04VVVgIuH-101" vertex="1"><mxGeometry width="30" height="30" as="geometry"><mxRectangle width="30" height="30" as="alternateBounds"/></mxGeometry></mxCell><mxCell id="zKBg_-9jiqZ04VVVgIuH-103" value="street_id SERIAL  NOT NULL" style="shape=partialRectangle;connectable=0;fillColor=none;top=0;left=0;bottom=0;right=0;align=left;spacingLeft=6;fontStyle=5;overflow=hidden;" parent="zKBg_-9jiqZ04VVVgIuH-101" vertex="1"><mxGeometry x="30" width="220" height="30" as="geometry"><mxRectangle width="220" height="30" as="alternateBounds"/></mxGeometry></mxCell><mxCell id="zKBg_-9jiqZ04VVVgIuH-107" value="" style="shape=partialRectangle;collapsible=0;dropTarget=0;pointerEvents=0;fillColor=none;top=0;left=0;bottom=0;right=0;points=[[0,0.5],[1,0.5]];portConstraint=eastwest;" parent="zKBg_-9jiqZ04VVVgIuH-100" vertex="1"><mxGeometry y="60" width="250" height="30" as="geometry"/></mxCell><mxCell id="zKBg_-9jiqZ04VVVgIuH-108" value="" style="shape=partialRectangle;connectable=0;fillColor=none;top=0;left=0;bottom=0;right=0;editable=1;overflow=hidden;" parent="zKBg_-9jiqZ04VVVgIuH-107" vertex="1"><mxGeometry width="30" height="30" as="geometry"><mxRectangle width="30" height="30" as="alternateBounds"/></mxGeometry></mxCell><mxCell id="zKBg_-9jiqZ04VVVgIuH-109" value="street_name VARCAH(255) NOT NULL" style="shape=partialRectangle;connectable=0;fillColor=none;top=0;left=0;bottom=0;right=0;align=left;spacingLeft=6;overflow=hidden;" parent="zKBg_-9jiqZ04VVVgIuH-107" vertex="1"><mxGeometry x="30" width="220" height="30" as="geometry"><mxRectangle width="220" height="30" as="alternateBounds"/></mxGeometry></mxCell><mxCell id="zKBg_-9jiqZ04VVVgIuH-110" value="Adress" style="shape=table;startSize=30;container=1;collapsible=1;childLayout=tableLayout;fixedRows=1;rowLines=0;fontStyle=1;align=center;resizeLast=1;" parent="1" vertex="1"><mxGeometry x="830" y="560" width="260" height="190" as="geometry"/></mxCell><mxCell id="zKBg_-9jiqZ04VVVgIuH-111" value="" style="shape=partialRectangle;collapsible=0;dropTarget=0;pointerEvents=0;fillColor=none;top=0;left=0;bottom=1;right=0;points=[[0,0.5],[1,0.5]];portConstraint=eastwest;" parent="zKBg_-9jiqZ04VVVgIuH-110" vertex="1"><mxGeometry y="30" width="260" height="30" as="geometry"/></mxCell><mxCell id="zKBg_-9jiqZ04VVVgIuH-112" value="PK" style="shape=partialRectangle;connectable=0;fillColor=none;top=0;left=0;bottom=0;right=0;fontStyle=1;overflow=hidden;" parent="zKBg_-9jiqZ04VVVgIuH-111" vertex="1"><mxGeometry width="30" height="30" as="geometry"><mxRectangle width="30" height="30" as="alternateBounds"/></mxGeometry></mxCell><mxCell id="zKBg_-9jiqZ04VVVgIuH-113" value="adress_id SERIAL NOT NULL" style="shape=partialRectangle;connectable=0;fillColor=none;top=0;left=0;bottom=0;right=0;align=left;spacingLeft=6;fontStyle=5;overflow=hidden;" parent="zKBg_-9jiqZ04VVVgIuH-111" vertex="1"><mxGeometry x="30" width="230" height="30" as="geometry"><mxRectangle width="230" height="30" as="alternateBounds"/></mxGeometry></mxCell><mxCell id="zKBg_-9jiqZ04VVVgIuH-114" value="" style="shape=partialRectangle;collapsible=0;dropTarget=0;pointerEvents=0;fillColor=none;top=0;left=0;bottom=0;right=0;points=[[0,0.5],[1,0.5]];portConstraint=eastwest;" parent="zKBg_-9jiqZ04VVVgIuH-110" vertex="1"><mxGeometry y="60" width="260" height="30" as="geometry"/></mxCell><mxCell id="zKBg_-9jiqZ04VVVgIuH-115" value="FK" style="shape=partialRectangle;connectable=0;fillColor=none;top=0;left=0;bottom=0;right=0;editable=1;overflow=hidden;" parent="zKBg_-9jiqZ04VVVgIuH-114" vertex="1"><mxGeometry width="30" height="30" as="geometry"><mxRectangle width="30" height="30" as="alternateBounds"/></mxGeometry></mxCell><mxCell id="zKBg_-9jiqZ04VVVgIuH-116" value="streets_street_id INT NOT NULL" style="shape=partialRectangle;connectable=0;fillColor=none;top=0;left=0;bottom=0;right=0;align=left;spacingLeft=6;overflow=hidden;" parent="zKBg_-9jiqZ04VVVgIuH-114" vertex="1"><mxGeometry x="30" width="230" height="30" as="geometry"><mxRectangle width="230" height="30" as="alternateBounds"/></mxGeometry></mxCell><mxCell id="zKBg_-9jiqZ04VVVgIuH-121" value="" style="shape=partialRectangle;collapsible=0;dropTarget=0;pointerEvents=0;fillColor=none;top=0;left=0;bottom=0;right=0;points=[[0,0.5],[1,0.5]];portConstraint=eastwest;" parent="zKBg_-9jiqZ04VVVgIuH-110" vertex="1"><mxGeometry y="90" width="260" height="30" as="geometry"/></mxCell><mxCell id="zKBg_-9jiqZ04VVVgIuH-122" value="" style="shape=partialRectangle;connectable=0;fillColor=none;top=0;left=0;bottom=0;right=0;editable=1;overflow=hidden;" parent="zKBg_-9jiqZ04VVVgIuH-121" vertex="1"><mxGeometry width="30" height="30" as="geometry"><mxRectangle width="30" height="30" as="alternateBounds"/></mxGeometry></mxCell><mxCell id="zKBg_-9jiqZ04VVVgIuH-123" value="street_number  SMALLINT  NOT NULL" style="shape=partialRectangle;connectable=0;fillColor=none;top=0;left=0;bottom=0;right=0;align=left;spacingLeft=6;overflow=hidden;" parent="zKBg_-9jiqZ04VVVgIuH-121" vertex="1"><mxGeometry x="30" width="230" height="30" as="geometry"><mxRectangle width="230" height="30" as="alternateBounds"/></mxGeometry></mxCell><mxCell id="zKBg_-9jiqZ04VVVgIuH-124" value="" style="shape=partialRectangle;collapsible=0;dropTarget=0;pointerEvents=0;fillColor=none;top=0;left=0;bottom=0;right=0;points=[[0,0.5],[1,0.5]];portConstraint=eastwest;" parent="zKBg_-9jiqZ04VVVgIuH-110" vertex="1"><mxGeometry y="120" width="260" height="30" as="geometry"/></mxCell><mxCell id="zKBg_-9jiqZ04VVVgIuH-125" value="FK" style="shape=partialRectangle;connectable=0;fillColor=none;top=0;left=0;bottom=0;right=0;editable=1;overflow=hidden;" parent="zKBg_-9jiqZ04VVVgIuH-124" vertex="1"><mxGeometry width="30" height="30" as="geometry"><mxRectangle width="30" height="30" as="alternateBounds"/></mxGeometry></mxCell><mxCell id="zKBg_-9jiqZ04VVVgIuH-126" value="cities_city_id INT  NOT NULL" style="shape=partialRectangle;connectable=0;fillColor=none;top=0;left=0;bottom=0;right=0;align=left;spacingLeft=6;overflow=hidden;" parent="zKBg_-9jiqZ04VVVgIuH-124" vertex="1"><mxGeometry x="30" width="230" height="30" as="geometry"><mxRectangle width="230" height="30" as="alternateBounds"/></mxGeometry></mxCell><mxCell id="zKBg_-9jiqZ04VVVgIuH-128" value="" style="shape=partialRectangle;collapsible=0;dropTarget=0;pointerEvents=0;fillColor=none;top=0;left=0;bottom=0;right=0;points=[[0,0.5],[1,0.5]];portConstraint=eastwest;" parent="zKBg_-9jiqZ04VVVgIuH-110" vertex="1"><mxGeometry y="150" width="260" height="30" as="geometry"/></mxCell><mxCell id="zKBg_-9jiqZ04VVVgIuH-129" value="FK" style="shape=partialRectangle;connectable=0;fillColor=none;top=0;left=0;bottom=0;right=0;editable=1;overflow=hidden;" parent="zKBg_-9jiqZ04VVVgIuH-128" vertex="1"><mxGeometry width="30" height="30" as="geometry"><mxRectangle width="30" height="30" as="alternateBounds"/></mxGeometry></mxCell><mxCell id="zKBg_-9jiqZ04VVVgIuH-130" value="states_state_id SAMLLINT  NOT NULL" style="shape=partialRectangle;connectable=0;fillColor=none;top=0;left=0;bottom=0;right=0;align=left;spacingLeft=6;overflow=hidden;" parent="zKBg_-9jiqZ04VVVgIuH-128" vertex="1"><mxGeometry x="30" width="230" height="30" as="geometry"><mxRectangle width="230" height="30" as="alternateBounds"/></mxGeometry></mxCell><mxCell id="zKBg_-9jiqZ04VVVgIuH-134" value="Phones" style="shape=table;startSize=30;container=1;collapsible=1;childLayout=tableLayout;fixedRows=1;rowLines=0;fontStyle=1;align=center;resizeLast=1;" parent="1" vertex="1"><mxGeometry x="380" width="210" height="120" as="geometry"/></mxCell><mxCell id="zKBg_-9jiqZ04VVVgIuH-135" value="" style="shape=partialRectangle;collapsible=0;dropTarget=0;pointerEvents=0;fillColor=none;top=0;left=0;bottom=1;right=0;points=[[0,0.5],[1,0.5]];portConstraint=eastwest;" parent="zKBg_-9jiqZ04VVVgIuH-134" vertex="1"><mxGeometry y="30" width="210" height="30" as="geometry"/></mxCell><mxCell id="zKBg_-9jiqZ04VVVgIuH-136" value="PK" style="shape=partialRectangle;connectable=0;fillColor=none;top=0;left=0;bottom=0;right=0;fontStyle=1;overflow=hidden;" parent="zKBg_-9jiqZ04VVVgIuH-135" vertex="1"><mxGeometry width="30" height="30" as="geometry"><mxRectangle width="30" height="30" as="alternateBounds"/></mxGeometry></mxCell><mxCell id="zKBg_-9jiqZ04VVVgIuH-137" value="phone_id SERIAL  NOT NULL" style="shape=partialRectangle;connectable=0;fillColor=none;top=0;left=0;bottom=0;right=0;align=left;spacingLeft=6;fontStyle=5;overflow=hidden;" parent="zKBg_-9jiqZ04VVVgIuH-135" vertex="1"><mxGeometry x="30" width="180" height="30" as="geometry"><mxRectangle width="180" height="30" as="alternateBounds"/></mxGeometry></mxCell><mxCell id="2" value="" style="shape=partialRectangle;collapsible=0;dropTarget=0;pointerEvents=0;fillColor=none;top=0;left=0;bottom=1;right=0;points=[[0,0.5],[1,0.5]];portConstraint=eastwest;" parent="zKBg_-9jiqZ04VVVgIuH-134" vertex="1"><mxGeometry y="60" width="210" height="30" as="geometry"/></mxCell><mxCell id="3" value="PK" style="shape=partialRectangle;connectable=0;fillColor=none;top=0;left=0;bottom=0;right=0;fontStyle=1;overflow=hidden;" parent="2" vertex="1"><mxGeometry width="30" height="30" as="geometry"><mxRectangle width="30" height="30" as="alternateBounds"/></mxGeometry></mxCell><mxCell id="4" value="phone_id SERIAL  NOT NULL" style="shape=partialRectangle;connectable=0;fillColor=none;top=0;left=0;bottom=0;right=0;align=left;spacingLeft=6;fontStyle=5;overflow=hidden;" parent="2" vertex="1"><mxGeometry x="30" width="180" height="30" as="geometry"><mxRectangle width="180" height="30" as="alternateBounds"/></mxGeometry></mxCell><mxCell id="zKBg_-9jiqZ04VVVgIuH-138" value="" style="shape=partialRectangle;collapsible=0;dropTarget=0;pointerEvents=0;fillColor=none;top=0;left=0;bottom=0;right=0;points=[[0,0.5],[1,0.5]];portConstraint=eastwest;" parent="zKBg_-9jiqZ04VVVgIuH-134" vertex="1"><mxGeometry y="90" width="210" height="30" as="geometry"/></mxCell><mxCell id="zKBg_-9jiqZ04VVVgIuH-139" value="" style="shape=partialRectangle;connectable=0;fillColor=none;top=0;left=0;bottom=0;right=0;editable=1;overflow=hidden;" parent="zKBg_-9jiqZ04VVVgIuH-138" vertex="1"><mxGeometry width="30" height="30" as="geometry"><mxRectangle width="30" height="30" as="alternateBounds"/></mxGeometry></mxCell><mxCell id="zKBg_-9jiqZ04VVVgIuH-140" value="phone_number INT  NOT NULL" style="shape=partialRectangle;connectable=0;fillColor=none;top=0;left=0;bottom=0;right=0;align=left;spacingLeft=6;overflow=hidden;" parent="zKBg_-9jiqZ04VVVgIuH-138" vertex="1"><mxGeometry x="30" width="180" height="30" as="geometry"><mxRectangle width="180" height="30" as="alternateBounds"/></mxGeometry></mxCell><mxCell id="zKBg_-9jiqZ04VVVgIuH-147" value="Branch" style="shape=table;startSize=30;container=1;collapsible=1;childLayout=tableLayout;fixedRows=1;rowLines=0;fontStyle=1;align=center;resizeLast=1;" parent="1" vertex="1"><mxGeometry x="1180" y="70" width="270" height="130" as="geometry"/></mxCell><mxCell id="zKBg_-9jiqZ04VVVgIuH-148" value="" style="shape=partialRectangle;collapsible=0;dropTarget=0;pointerEvents=0;fillColor=none;top=0;left=0;bottom=1;right=0;points=[[0,0.5],[1,0.5]];portConstraint=eastwest;" parent="zKBg_-9jiqZ04VVVgIuH-147" vertex="1"><mxGeometry y="30" width="270" height="30" as="geometry"/></mxCell><mxCell id="zKBg_-9jiqZ04VVVgIuH-149" value="PK" style="shape=partialRectangle;connectable=0;fillColor=none;top=0;left=0;bottom=0;right=0;fontStyle=1;overflow=hidden;" parent="zKBg_-9jiqZ04VVVgIuH-148" vertex="1"><mxGeometry width="30" height="30" as="geometry"><mxRectangle width="30" height="30" as="alternateBounds"/></mxGeometry></mxCell><mxCell id="zKBg_-9jiqZ04VVVgIuH-150" value="branch_id SERIAL  NOT NULL" style="shape=partialRectangle;connectable=0;fillColor=none;top=0;left=0;bottom=0;right=0;align=left;spacingLeft=6;fontStyle=5;overflow=hidden;" parent="zKBg_-9jiqZ04VVVgIuH-148" vertex="1"><mxGeometry x="30" width="240" height="30" as="geometry"><mxRectangle width="240" height="30" as="alternateBounds"/></mxGeometry></mxCell><mxCell id="zKBg_-9jiqZ04VVVgIuH-154" value="" style="shape=partialRectangle;collapsible=0;dropTarget=0;pointerEvents=0;fillColor=none;top=0;left=0;bottom=0;right=0;points=[[0,0.5],[1,0.5]];portConstraint=eastwest;" parent="zKBg_-9jiqZ04VVVgIuH-147" vertex="1"><mxGeometry y="60" width="270" height="30" as="geometry"/></mxCell><mxCell id="zKBg_-9jiqZ04VVVgIuH-155" value="FK" style="shape=partialRectangle;connectable=0;fillColor=none;top=0;left=0;bottom=0;right=0;editable=1;overflow=hidden;" parent="zKBg_-9jiqZ04VVVgIuH-154" vertex="1"><mxGeometry width="30" height="30" as="geometry"><mxRectangle width="30" height="30" as="alternateBounds"/></mxGeometry></mxCell><mxCell id="zKBg_-9jiqZ04VVVgIuH-156" value="phones_phone_id BIGINT " style="shape=partialRectangle;connectable=0;fillColor=none;top=0;left=0;bottom=0;right=0;align=left;spacingLeft=6;overflow=hidden;" parent="zKBg_-9jiqZ04VVVgIuH-154" vertex="1"><mxGeometry x="30" width="240" height="30" as="geometry"><mxRectangle width="240" height="30" as="alternateBounds"/></mxGeometry></mxCell><mxCell id="zKBg_-9jiqZ04VVVgIuH-151" value="" style="shape=partialRectangle;collapsible=0;dropTarget=0;pointerEvents=0;fillColor=none;top=0;left=0;bottom=0;right=0;points=[[0,0.5],[1,0.5]];portConstraint=eastwest;" parent="zKBg_-9jiqZ04VVVgIuH-147" vertex="1"><mxGeometry y="90" width="270" height="30" as="geometry"/></mxCell><mxCell id="zKBg_-9jiqZ04VVVgIuH-152" value="FK" style="shape=partialRectangle;connectable=0;fillColor=none;top=0;left=0;bottom=0;right=0;editable=1;overflow=hidden;" parent="zKBg_-9jiqZ04VVVgIuH-151" vertex="1"><mxGeometry width="30" height="30" as="geometry"><mxRectangle width="30" height="30" as="alternateBounds"/></mxGeometry></mxCell><mxCell id="zKBg_-9jiqZ04VVVgIuH-153" value="adress_adress_id INT  NOT NULL" style="shape=partialRectangle;connectable=0;fillColor=none;top=0;left=0;bottom=0;right=0;align=left;spacingLeft=6;overflow=hidden;" parent="zKBg_-9jiqZ04VVVgIuH-151" vertex="1"><mxGeometry x="30" width="240" height="30" as="geometry"><mxRectangle width="240" height="30" as="alternateBounds"/></mxGeometry></mxCell><mxCell id="zKBg_-9jiqZ04VVVgIuH-160" value="Oder" style="shape=table;startSize=30;container=1;collapsible=1;childLayout=tableLayout;fixedRows=1;rowLines=0;fontStyle=1;align=center;resizeLast=1;" parent="1" vertex="1"><mxGeometry x="380" y="170" width="240" height="210" as="geometry"/></mxCell><mxCell id="zKBg_-9jiqZ04VVVgIuH-161" value="" style="shape=partialRectangle;collapsible=0;dropTarget=0;pointerEvents=0;fillColor=none;top=0;left=0;bottom=1;right=0;points=[[0,0.5],[1,0.5]];portConstraint=eastwest;" parent="zKBg_-9jiqZ04VVVgIuH-160" vertex="1"><mxGeometry y="30" width="240" height="30" as="geometry"/></mxCell><mxCell id="zKBg_-9jiqZ04VVVgIuH-162" value="PK" style="shape=partialRectangle;connectable=0;fillColor=none;top=0;left=0;bottom=0;right=0;fontStyle=1;overflow=hidden;" parent="zKBg_-9jiqZ04VVVgIuH-161" vertex="1"><mxGeometry width="30" height="30" as="geometry"><mxRectangle width="30" height="30" as="alternateBounds"/></mxGeometry></mxCell><mxCell id="zKBg_-9jiqZ04VVVgIuH-163" value="order_id SERIAL NOT NULL" style="shape=partialRectangle;connectable=0;fillColor=none;top=0;left=0;bottom=0;right=0;align=left;spacingLeft=6;fontStyle=5;overflow=hidden;" parent="zKBg_-9jiqZ04VVVgIuH-161" vertex="1"><mxGeometry x="30" width="210" height="30" as="geometry"><mxRectangle width="210" height="30" as="alternateBounds"/></mxGeometry></mxCell><mxCell id="zKBg_-9jiqZ04VVVgIuH-164" value="" style="shape=partialRectangle;collapsible=0;dropTarget=0;pointerEvents=0;fillColor=none;top=0;left=0;bottom=0;right=0;points=[[0,0.5],[1,0.5]];portConstraint=eastwest;" parent="zKBg_-9jiqZ04VVVgIuH-160" vertex="1"><mxGeometry y="60" width="240" height="30" as="geometry"/></mxCell><mxCell id="zKBg_-9jiqZ04VVVgIuH-165" value="FK" style="shape=partialRectangle;connectable=0;fillColor=none;top=0;left=0;bottom=0;right=0;editable=1;overflow=hidden;" parent="zKBg_-9jiqZ04VVVgIuH-164" vertex="1"><mxGeometry width="30" height="30" as="geometry"><mxRectangle width="30" height="30" as="alternateBounds"/></mxGeometry></mxCell><mxCell id="zKBg_-9jiqZ04VVVgIuH-166" value="user_id SMALLINT  NOT NULL" style="shape=partialRectangle;connectable=0;fillColor=none;top=0;left=0;bottom=0;right=0;align=left;spacingLeft=6;overflow=hidden;" parent="zKBg_-9jiqZ04VVVgIuH-164" vertex="1"><mxGeometry x="30" width="210" height="30" as="geometry"><mxRectangle width="210" height="30" as="alternateBounds"/></mxGeometry></mxCell><mxCell id="zKBg_-9jiqZ04VVVgIuH-167" value="" style="shape=partialRectangle;collapsible=0;dropTarget=0;pointerEvents=0;fillColor=none;top=0;left=0;bottom=0;right=0;points=[[0,0.5],[1,0.5]];portConstraint=eastwest;" parent="zKBg_-9jiqZ04VVVgIuH-160" vertex="1"><mxGeometry y="90" width="240" height="30" as="geometry"/></mxCell><mxCell id="zKBg_-9jiqZ04VVVgIuH-168" value="FK" style="shape=partialRectangle;connectable=0;fillColor=none;top=0;left=0;bottom=0;right=0;editable=1;overflow=hidden;" parent="zKBg_-9jiqZ04VVVgIuH-167" vertex="1"><mxGeometry width="30" height="30" as="geometry"><mxRectangle width="30" height="30" as="alternateBounds"/></mxGeometry></mxCell><mxCell id="zKBg_-9jiqZ04VVVgIuH-169" value="purchase_id SMALLINT  NOT NULL" style="shape=partialRectangle;connectable=0;fillColor=none;top=0;left=0;bottom=0;right=0;align=left;spacingLeft=6;overflow=hidden;" parent="zKBg_-9jiqZ04VVVgIuH-167" vertex="1"><mxGeometry x="30" width="210" height="30" as="geometry"><mxRectangle width="210" height="30" as="alternateBounds"/></mxGeometry></mxCell><mxCell id="zKBg_-9jiqZ04VVVgIuH-221" value="" style="shape=partialRectangle;collapsible=0;dropTarget=0;pointerEvents=0;fillColor=none;top=0;left=0;bottom=0;right=0;points=[[0,0.5],[1,0.5]];portConstraint=eastwest;" parent="zKBg_-9jiqZ04VVVgIuH-160" vertex="1"><mxGeometry y="120" width="240" height="30" as="geometry"/></mxCell><mxCell id="zKBg_-9jiqZ04VVVgIuH-222" value="" style="shape=partialRectangle;connectable=0;fillColor=none;top=0;left=0;bottom=0;right=0;editable=1;overflow=hidden;" parent="zKBg_-9jiqZ04VVVgIuH-221" vertex="1"><mxGeometry width="30" height="30" as="geometry"><mxRectangle width="30" height="30" as="alternateBounds"/></mxGeometry></mxCell><mxCell id="zKBg_-9jiqZ04VVVgIuH-223" value="price MONEY NOT NULL" style="shape=partialRectangle;connectable=0;fillColor=none;top=0;left=0;bottom=0;right=0;align=left;spacingLeft=6;overflow=hidden;" parent="zKBg_-9jiqZ04VVVgIuH-221" vertex="1"><mxGeometry x="30" width="210" height="30" as="geometry"><mxRectangle width="210" height="30" as="alternateBounds"/></mxGeometry></mxCell><mxCell id="zKBg_-9jiqZ04VVVgIuH-212" value="" style="shape=partialRectangle;collapsible=0;dropTarget=0;pointerEvents=0;fillColor=none;top=0;left=0;bottom=0;right=0;points=[[0,0.5],[1,0.5]];portConstraint=eastwest;" parent="zKBg_-9jiqZ04VVVgIuH-160" vertex="1"><mxGeometry y="150" width="240" height="30" as="geometry"/></mxCell><mxCell id="zKBg_-9jiqZ04VVVgIuH-213" value="" style="shape=partialRectangle;connectable=0;fillColor=none;top=0;left=0;bottom=0;right=0;editable=1;overflow=hidden;" parent="zKBg_-9jiqZ04VVVgIuH-212" vertex="1"><mxGeometry width="30" height="30" as="geometry"><mxRectangle width="30" height="30" as="alternateBounds"/></mxGeometry></mxCell><mxCell id="zKBg_-9jiqZ04VVVgIuH-214" value="rantig_period TIMESTAMP(2)" style="shape=partialRectangle;connectable=0;fillColor=none;top=0;left=0;bottom=0;right=0;align=left;spacingLeft=6;overflow=hidden;" parent="zKBg_-9jiqZ04VVVgIuH-212" vertex="1"><mxGeometry x="30" width="210" height="30" as="geometry"><mxRectangle width="210" height="30" as="alternateBounds"/></mxGeometry></mxCell><mxCell id="zKBg_-9jiqZ04VVVgIuH-170" value="" style="shape=partialRectangle;collapsible=0;dropTarget=0;pointerEvents=0;fillColor=none;top=0;left=0;bottom=0;right=0;points=[[0,0.5],[1,0.5]];portConstraint=eastwest;" parent="zKBg_-9jiqZ04VVVgIuH-160" vertex="1"><mxGeometry y="180" width="240" height="30" as="geometry"/></mxCell><mxCell id="zKBg_-9jiqZ04VVVgIuH-171" value="" style="shape=partialRectangle;connectable=0;fillColor=none;top=0;left=0;bottom=0;right=0;editable=1;overflow=hidden;" parent="zKBg_-9jiqZ04VVVgIuH-170" vertex="1"><mxGeometry width="30" height="30" as="geometry"><mxRectangle width="30" height="30" as="alternateBounds"/></mxGeometry></mxCell><mxCell id="zKBg_-9jiqZ04VVVgIuH-172" value="renting_day TIMESTAMP(2)" style="shape=partialRectangle;connectable=0;fillColor=none;top=0;left=0;bottom=0;right=0;align=left;spacingLeft=6;overflow=hidden;" parent="zKBg_-9jiqZ04VVVgIuH-170" vertex="1"><mxGeometry x="30" width="210" height="30" as="geometry"><mxRectangle width="210" height="30" as="alternateBounds"/></mxGeometry></mxCell><mxCell id="zKBg_-9jiqZ04VVVgIuH-174" value="" style="edgeStyle=entityRelationEdgeStyle;fontSize=12;html=1;endArrow=ERmandOne;startArrow=ERmandOne;rounded=1;entryX=0;entryY=0.5;entryDx=0;entryDy=0;" parent="1" source="zKBg_-9jiqZ04VVVgIuH-57" target="zKBg_-9jiqZ04VVVgIuH-70" edge="1"><mxGeometry width="100" height="100" relative="1" as="geometry"><mxPoint x="230" y="550" as="sourcePoint"/><mxPoint x="310" y="480" as="targetPoint"/></mxGeometry></mxCell><mxCell id="zKBg_-9jiqZ04VVVgIuH-175" value="" style="edgeStyle=entityRelationEdgeStyle;fontSize=12;html=1;endArrow=ERmandOne;startArrow=ERmandOne;rounded=1;entryX=0;entryY=0.5;entryDx=0;entryDy=0;" parent="1" source="zKBg_-9jiqZ04VVVgIuH-44" target="zKBg_-9jiqZ04VVVgIuH-77" edge="1"><mxGeometry width="100" height="100" relative="1" as="geometry"><mxPoint x="290" y="430" as="sourcePoint"/><mxPoint x="390" y="330" as="targetPoint"/></mxGeometry></mxCell><mxCell id="zKBg_-9jiqZ04VVVgIuH-177" value="" style="edgeStyle=entityRelationEdgeStyle;fontSize=12;html=1;endArrow=ERoneToMany;rounded=1;exitX=1;exitY=0.5;exitDx=0;exitDy=0;" parent="1" source="zKBg_-9jiqZ04VVVgIuH-44" target="zKBg_-9jiqZ04VVVgIuH-60" edge="1"><mxGeometry width="100" height="100" relative="1" as="geometry"><mxPoint x="290" y="440" as="sourcePoint"/><mxPoint x="390" y="340" as="targetPoint"/></mxGeometry></mxCell><mxCell id="zKBg_-9jiqZ04VVVgIuH-185" value="" style="edgeStyle=entityRelationEdgeStyle;fontSize=12;html=1;endArrow=ERmandOne;startArrow=ERmandOne;rounded=1;entryX=0.002;entryY=0.182;entryDx=0;entryDy=0;entryPerimeter=0;" parent="1" source="zKBg_-9jiqZ04VVVgIuH-135" target="zKBg_-9jiqZ04VVVgIuH-154" edge="1"><mxGeometry width="100" height="100" relative="1" as="geometry"><mxPoint x="670" y="190" as="sourcePoint"/><mxPoint x="770" y="90" as="targetPoint"/></mxGeometry></mxCell><mxCell id="zKBg_-9jiqZ04VVVgIuH-186" value="" style="edgeStyle=entityRelationEdgeStyle;fontSize=12;html=1;endArrow=ERoneToMany;rounded=1;entryX=0;entryY=0.5;entryDx=0;entryDy=0;" parent="1" source="zKBg_-9jiqZ04VVVgIuH-111" target="zKBg_-9jiqZ04VVVgIuH-151" edge="1"><mxGeometry width="100" height="100" relative="1" as="geometry"><mxPoint x="660" y="190" as="sourcePoint"/><mxPoint x="760" y="90" as="targetPoint"/></mxGeometry></mxCell><mxCell id="zKBg_-9jiqZ04VVVgIuH-188" value="Purchase" style="shape=table;startSize=30;container=1;collapsible=1;childLayout=tableLayout;fixedRows=1;rowLines=0;fontStyle=1;align=center;resizeLast=1;" parent="1" vertex="1"><mxGeometry x="750" y="260" width="260" height="130" as="geometry"/></mxCell><mxCell id="zKBg_-9jiqZ04VVVgIuH-189" value="" style="shape=partialRectangle;collapsible=0;dropTarget=0;pointerEvents=0;fillColor=none;top=0;left=0;bottom=1;right=0;points=[[0,0.5],[1,0.5]];portConstraint=eastwest;" parent="zKBg_-9jiqZ04VVVgIuH-188" vertex="1"><mxGeometry y="30" width="260" height="30" as="geometry"/></mxCell><mxCell id="zKBg_-9jiqZ04VVVgIuH-190" value="PK" style="shape=partialRectangle;connectable=0;fillColor=none;top=0;left=0;bottom=0;right=0;fontStyle=1;overflow=hidden;" parent="zKBg_-9jiqZ04VVVgIuH-189" vertex="1"><mxGeometry width="30" height="30" as="geometry"><mxRectangle width="30" height="30" as="alternateBounds"/></mxGeometry></mxCell><mxCell id="zKBg_-9jiqZ04VVVgIuH-191" value="purchase_id SERIAL  NOT NULL" style="shape=partialRectangle;connectable=0;fillColor=none;top=0;left=0;bottom=0;right=0;align=left;spacingLeft=6;fontStyle=5;overflow=hidden;" parent="zKBg_-9jiqZ04VVVgIuH-189" vertex="1"><mxGeometry x="30" width="230" height="30" as="geometry"><mxRectangle width="230" height="30" as="alternateBounds"/></mxGeometry></mxCell><mxCell id="zKBg_-9jiqZ04VVVgIuH-192" value="" style="shape=partialRectangle;collapsible=0;dropTarget=0;pointerEvents=0;fillColor=none;top=0;left=0;bottom=0;right=0;points=[[0,0.5],[1,0.5]];portConstraint=eastwest;" parent="zKBg_-9jiqZ04VVVgIuH-188" vertex="1"><mxGeometry y="60" width="260" height="30" as="geometry"/></mxCell><mxCell id="zKBg_-9jiqZ04VVVgIuH-193" value="FK" style="shape=partialRectangle;connectable=0;fillColor=none;top=0;left=0;bottom=0;right=0;editable=1;overflow=hidden;" parent="zKBg_-9jiqZ04VVVgIuH-192" vertex="1"><mxGeometry width="30" height="30" as="geometry"><mxRectangle width="30" height="30" as="alternateBounds"/></mxGeometry></mxCell><mxCell id="zKBg_-9jiqZ04VVVgIuH-194" value="cars_car_id SMALLINT  NOT NULL" style="shape=partialRectangle;connectable=0;fillColor=none;top=0;left=0;bottom=0;right=0;align=left;spacingLeft=6;overflow=hidden;" parent="zKBg_-9jiqZ04VVVgIuH-192" vertex="1"><mxGeometry x="30" width="230" height="30" as="geometry"><mxRectangle width="230" height="30" as="alternateBounds"/></mxGeometry></mxCell><mxCell id="zKBg_-9jiqZ04VVVgIuH-195" value="" style="shape=partialRectangle;collapsible=0;dropTarget=0;pointerEvents=0;fillColor=none;top=0;left=0;bottom=0;right=0;points=[[0,0.5],[1,0.5]];portConstraint=eastwest;" parent="zKBg_-9jiqZ04VVVgIuH-188" vertex="1"><mxGeometry y="90" width="260" height="30" as="geometry"/></mxCell><mxCell id="zKBg_-9jiqZ04VVVgIuH-196" value="FK" style="shape=partialRectangle;connectable=0;fillColor=none;top=0;left=0;bottom=0;right=0;editable=1;overflow=hidden;" parent="zKBg_-9jiqZ04VVVgIuH-195" vertex="1"><mxGeometry width="30" height="30" as="geometry"><mxRectangle width="30" height="30" as="alternateBounds"/></mxGeometry></mxCell><mxCell id="zKBg_-9jiqZ04VVVgIuH-197" value="branch_brach_id SMALLINT  NOT NULL" style="shape=partialRectangle;connectable=0;fillColor=none;top=0;left=0;bottom=0;right=0;align=left;spacingLeft=6;overflow=hidden;" parent="zKBg_-9jiqZ04VVVgIuH-195" vertex="1"><mxGeometry x="30" width="230" height="30" as="geometry"><mxRectangle width="230" height="30" as="alternateBounds"/></mxGeometry></mxCell><mxCell id="zKBg_-9jiqZ04VVVgIuH-201" value="" style="edgeStyle=entityRelationEdgeStyle;fontSize=12;html=1;endArrow=ERmandOne;startArrow=ERmandOne;rounded=1;" parent="1" source="zKBg_-9jiqZ04VVVgIuH-31" target="zKBg_-9jiqZ04VVVgIuH-192" edge="1"><mxGeometry width="100" height="100" relative="1" as="geometry"><mxPoint x="550" y="260" as="sourcePoint"/><mxPoint x="650" y="160" as="targetPoint"/></mxGeometry></mxCell><mxCell id="zKBg_-9jiqZ04VVVgIuH-215" value="" style="edgeStyle=entityRelationEdgeStyle;fontSize=12;html=1;endArrow=ERmany;startArrow=ERmany;rounded=1;" parent="1" source="zKBg_-9jiqZ04VVVgIuH-195" target="zKBg_-9jiqZ04VVVgIuH-148" edge="1"><mxGeometry width="100" height="100" relative="1" as="geometry"><mxPoint x="830" y="110" as="sourcePoint"/><mxPoint x="930" y="10" as="targetPoint"/></mxGeometry></mxCell><mxCell id="zKBg_-9jiqZ04VVVgIuH-227" value="" style="edgeStyle=entityRelationEdgeStyle;fontSize=12;html=1;endArrow=ERzeroToMany;startArrow=ERzeroToOne;rounded=1;entryX=0;entryY=0.5;entryDx=0;entryDy=0;exitX=1;exitY=0.5;exitDx=0;exitDy=0;" parent="1" source="zKBg_-9jiqZ04VVVgIuH-6" target="zKBg_-9jiqZ04VVVgIuH-161" edge="1"><mxGeometry width="100" height="100" relative="1" as="geometry"><mxPoint x="310" y="90" as="sourcePoint"/><mxPoint x="390" y="75" as="targetPoint"/></mxGeometry></mxCell><mxCell id="zKBg_-9jiqZ04VVVgIuH-230" value="" style="edgeStyle=entityRelationEdgeStyle;fontSize=12;html=1;endArrow=ERzeroToMany;startArrow=ERmandOne;rounded=1;" parent="1" source="zKBg_-9jiqZ04VVVgIuH-189" target="zKBg_-9jiqZ04VVVgIuH-167" edge="1"><mxGeometry width="100" height="100" relative="1" as="geometry"><mxPoint x="640" y="380" as="sourcePoint"/><mxPoint x="740" y="280" as="targetPoint"/></mxGeometry></mxCell><mxCell id="zKBg_-9jiqZ04VVVgIuH-234" value="" style="edgeStyle=entityRelationEdgeStyle;fontSize=12;html=1;endArrow=ERzeroToMany;startArrow=ERmandOne;rounded=1;" parent="1" source="zKBg_-9jiqZ04VVVgIuH-101" target="zKBg_-9jiqZ04VVVgIuH-121" edge="1"><mxGeometry width="100" height="100" relative="1" as="geometry"><mxPoint x="1070" y="270" as="sourcePoint"/><mxPoint x="1040" y="280" as="targetPoint"/></mxGeometry></mxCell><mxCell id="zKBg_-9jiqZ04VVVgIuH-235" value="" style="edgeStyle=entityRelationEdgeStyle;fontSize=12;html=1;endArrow=ERzeroToMany;startArrow=ERmandOne;rounded=1;exitX=-0.016;exitY=0.6;exitDx=0;exitDy=0;exitPerimeter=0;" parent="1" source="zKBg_-9jiqZ04VVVgIuH-94" target="zKBg_-9jiqZ04VVVgIuH-128" edge="1"><mxGeometry width="100" height="100" relative="1" as="geometry"><mxPoint x="1160" y="285" as="sourcePoint"/><mxPoint x="1060" y="540" as="targetPoint"/></mxGeometry></mxCell><mxCell id="zKBg_-9jiqZ04VVVgIuH-236" value="" style="edgeStyle=entityRelationEdgeStyle;fontSize=12;html=1;endArrow=ERzeroToMany;startArrow=ERmandOne;rounded=1;exitX=-0.008;exitY=0.667;exitDx=0;exitDy=0;exitPerimeter=0;" parent="1" source="zKBg_-9jiqZ04VVVgIuH-84" target="zKBg_-9jiqZ04VVVgIuH-124" edge="1"><mxGeometry width="100" height="100" relative="1" as="geometry"><mxPoint x="1156" y="558" as="sourcePoint"/><mxPoint x="1060" y="600" as="targetPoint"/></mxGeometry></mxCell><mxCell id="zKBg_-9jiqZ04VVVgIuH-237" value="" style="edgeStyle=orthogonalEdgeStyle;fontSize=12;html=1;endArrow=ERzeroToMany;startArrow=ERzeroToOne;rounded=1;" parent="1" target="zKBg_-9jiqZ04VVVgIuH-131" edge="1"><mxGeometry width="100" height="100" relative="1" as="geometry"><mxPoint x="960" y="560" as="sourcePoint"/><mxPoint x="280" y="280" as="targetPoint"/><Array as="points"><mxPoint x="280" y="470"/><mxPoint x="280" y="215"/></Array></mxGeometry></mxCell><mxCell id="zKBg_-9jiqZ04VVVgIuH-239" value="" style="edgeStyle=entityRelationEdgeStyle;fontSize=12;html=1;endArrow=ERzeroToOne;endFill=1;rounded=1;" parent="1" source="zKBg_-9jiqZ04VVVgIuH-24" target="zKBg_-9jiqZ04VVVgIuH-135" edge="1"><mxGeometry width="100" height="100" relative="1" as="geometry"><mxPoint x="280" y="130" as="sourcePoint"/><mxPoint x="380" y="30" as="targetPoint"/></mxGeometry></mxCell></root></mxGraphModel></diagram></mxfile>